<mxfile host="Electron" agent="Mozilla/5.0 (Windows NT 10.0; Win64; x64) AppleWebKit/537.36 (KHTML, like Gecko) draw.io/26.1.1 Chrome/132.0.6834.210 Electron/34.3.3 Safari/537.36" version="26.1.1">
  <diagram id="C5RBs43oDa-KdzZeNtuy" name="Page-1">
    <mxGraphModel dx="1408" dy="392" grid="1" gridSize="10" guides="1" tooltips="1" connect="1" arrows="1" fold="1" page="1" pageScale="1" pageWidth="827" pageHeight="1169" math="0" shadow="0">
      <root>
        <mxCell id="WIyWlLk6GJQsqaUBKTNV-0" />
        <mxCell id="WIyWlLk6GJQsqaUBKTNV-1" parent="WIyWlLk6GJQsqaUBKTNV-0" />
        <mxCell id="zkfFHV4jXpPFQw0GAbJ--6" value="&lt;b&gt;&lt;font&gt;Инициализация&lt;/font&gt;&lt;/b&gt;" style="swimlane;fontStyle=0;align=center;verticalAlign=top;childLayout=stackLayout;horizontal=1;startSize=26;horizontalStack=0;resizeParent=1;resizeLast=0;collapsible=1;marginBottom=0;rounded=0;shadow=0;strokeWidth=1;whiteSpace=wrap;html=1;fontSize=16;" parent="WIyWlLk6GJQsqaUBKTNV-1" vertex="1">
          <mxGeometry x="-80" y="330" width="190" height="190" as="geometry">
            <mxRectangle x="90" y="450" width="160" height="26" as="alternateBounds" />
          </mxGeometry>
        </mxCell>
        <mxCell id="lluz-K4Evu7ccjWHsJJB-2" value="Робот включается.&lt;div&gt;Иниализация GPS и GRPS модулей, установка соединения. Проверка подключенного модуля.&amp;nbsp;&lt;/div&gt;" style="text;align=center;verticalAlign=middle;rounded=0;textDirection=ltr;horizontal=1;fontSize=16;html=1;whiteSpace=wrap;" parent="zkfFHV4jXpPFQw0GAbJ--6" vertex="1">
          <mxGeometry y="26" width="190" height="164" as="geometry" />
        </mxCell>
        <mxCell id="lluz-K4Evu7ccjWHsJJB-3" value="&lt;b&gt;&lt;font&gt;Ожиданние команд&lt;/font&gt;&lt;/b&gt;" style="swimlane;fontStyle=0;align=center;verticalAlign=top;childLayout=stackLayout;horizontal=1;startSize=26;horizontalStack=0;resizeParent=1;resizeLast=0;collapsible=1;marginBottom=0;rounded=0;shadow=0;strokeWidth=1;whiteSpace=wrap;html=1;fontSize=16;" parent="WIyWlLk6GJQsqaUBKTNV-1" vertex="1">
          <mxGeometry x="160" y="360" width="190" height="130" as="geometry">
            <mxRectangle x="90" y="450" width="160" height="26" as="alternateBounds" />
          </mxGeometry>
        </mxCell>
        <mxCell id="lluz-K4Evu7ccjWHsJJB-4" value="Проверка доступности модулей.&lt;div&gt;Ожидание получения команды&lt;/div&gt;" style="text;align=center;verticalAlign=middle;rounded=0;textDirection=ltr;horizontal=1;fontSize=16;html=1;whiteSpace=wrap;" parent="lluz-K4Evu7ccjWHsJJB-3" vertex="1">
          <mxGeometry y="26" width="190" height="104" as="geometry" />
        </mxCell>
        <mxCell id="lluz-K4Evu7ccjWHsJJB-7" value="&lt;b&gt;&lt;font&gt;Полычение данных&lt;/font&gt;&lt;/b&gt;" style="swimlane;fontStyle=0;align=center;verticalAlign=top;childLayout=stackLayout;horizontal=1;startSize=26;horizontalStack=0;resizeParent=1;resizeLast=0;collapsible=1;marginBottom=0;rounded=0;shadow=0;strokeWidth=1;whiteSpace=wrap;html=1;fontSize=16;" parent="WIyWlLk6GJQsqaUBKTNV-1" vertex="1">
          <mxGeometry x="450" y="375" width="190" height="100" as="geometry">
            <mxRectangle x="90" y="450" width="160" height="26" as="alternateBounds" />
          </mxGeometry>
        </mxCell>
        <mxCell id="lluz-K4Evu7ccjWHsJJB-8" value="Отправляет модулю запрос по I2C" style="text;align=center;verticalAlign=middle;rounded=0;textDirection=ltr;horizontal=1;fontSize=16;html=1;whiteSpace=wrap;" parent="lluz-K4Evu7ccjWHsJJB-7" vertex="1">
          <mxGeometry y="26" width="190" height="74" as="geometry" />
        </mxCell>
        <mxCell id="lluz-K4Evu7ccjWHsJJB-10" value="&lt;b&gt;&lt;font&gt;Ошибка&lt;/font&gt;&lt;/b&gt;" style="swimlane;fontStyle=0;align=center;verticalAlign=top;childLayout=stackLayout;horizontal=1;startSize=26;horizontalStack=0;resizeParent=1;resizeLast=0;collapsible=1;marginBottom=0;rounded=0;shadow=0;strokeWidth=1;whiteSpace=wrap;html=1;fontSize=16;" parent="WIyWlLk6GJQsqaUBKTNV-1" vertex="1">
          <mxGeometry x="160" y="540" width="190" height="120" as="geometry">
            <mxRectangle x="90" y="450" width="160" height="26" as="alternateBounds" />
          </mxGeometry>
        </mxCell>
        <mxCell id="lluz-K4Evu7ccjWHsJJB-11" value="Робот останавливается.&amp;nbsp;&lt;div&gt;Если возможно, отправляет данные об ошибке на сервер.&lt;/div&gt;&lt;div&gt;Ожидает человека&lt;/div&gt;" style="text;align=center;verticalAlign=middle;rounded=0;textDirection=ltr;horizontal=1;fontSize=16;html=1;whiteSpace=wrap;" parent="lluz-K4Evu7ccjWHsJJB-10" vertex="1">
          <mxGeometry y="26" width="190" height="94" as="geometry" />
        </mxCell>
        <mxCell id="lluz-K4Evu7ccjWHsJJB-12" value="&lt;b&gt;&lt;font&gt;Калибровка&lt;/font&gt;&lt;/b&gt;" style="swimlane;fontStyle=0;align=center;verticalAlign=top;childLayout=stackLayout;horizontal=1;startSize=26;horizontalStack=0;resizeParent=1;resizeLast=0;collapsible=1;marginBottom=0;rounded=0;shadow=0;strokeWidth=1;whiteSpace=wrap;html=1;fontSize=16;" parent="WIyWlLk6GJQsqaUBKTNV-1" vertex="1">
          <mxGeometry x="450" y="260" width="190" height="100" as="geometry">
            <mxRectangle x="90" y="450" width="160" height="26" as="alternateBounds" />
          </mxGeometry>
        </mxCell>
        <mxCell id="lluz-K4Evu7ccjWHsJJB-13" value="Калибровка гироскопа" style="text;align=center;verticalAlign=middle;rounded=0;textDirection=ltr;horizontal=1;fontSize=16;html=1;whiteSpace=wrap;" parent="lluz-K4Evu7ccjWHsJJB-12" vertex="1">
          <mxGeometry y="26" width="190" height="74" as="geometry" />
        </mxCell>
        <mxCell id="lluz-K4Evu7ccjWHsJJB-19" style="edgeStyle=orthogonalEdgeStyle;rounded=0;orthogonalLoop=1;jettySize=auto;html=1;entryX=0;entryY=0.5;entryDx=0;entryDy=0;fontSize=16;" parent="WIyWlLk6GJQsqaUBKTNV-1" source="lluz-K4Evu7ccjWHsJJB-2" target="lluz-K4Evu7ccjWHsJJB-4" edge="1">
          <mxGeometry relative="1" as="geometry" />
        </mxCell>
        <mxCell id="lluz-K4Evu7ccjWHsJJB-24" style="edgeStyle=orthogonalEdgeStyle;rounded=0;orthogonalLoop=1;jettySize=auto;html=1;entryX=0;entryY=0.5;entryDx=0;entryDy=0;fontSize=16;" parent="WIyWlLk6GJQsqaUBKTNV-1" source="lluz-K4Evu7ccjWHsJJB-4" target="lluz-K4Evu7ccjWHsJJB-13" edge="1">
          <mxGeometry relative="1" as="geometry">
            <mxPoint x="400" y="290" as="targetPoint" />
            <Array as="points">
              <mxPoint x="420" y="438" />
              <mxPoint x="420" y="323" />
            </Array>
          </mxGeometry>
        </mxCell>
        <mxCell id="lluz-K4Evu7ccjWHsJJB-25" style="edgeStyle=orthogonalEdgeStyle;rounded=0;orthogonalLoop=1;jettySize=auto;html=1;entryX=0;entryY=0.5;entryDx=0;entryDy=0;fontSize=16;" parent="WIyWlLk6GJQsqaUBKTNV-1" source="lluz-K4Evu7ccjWHsJJB-4" target="lluz-K4Evu7ccjWHsJJB-8" edge="1">
          <mxGeometry relative="1" as="geometry" />
        </mxCell>
        <mxCell id="lluz-K4Evu7ccjWHsJJB-27" value="Получена команда" style="text;html=1;align=center;verticalAlign=middle;whiteSpace=wrap;rounded=0;fontSize=15;" parent="WIyWlLk6GJQsqaUBKTNV-1" vertex="1">
          <mxGeometry x="350" y="420" width="70" height="30" as="geometry" />
        </mxCell>
        <mxCell id="lluz-K4Evu7ccjWHsJJB-31" value="" style="endArrow=classic;html=1;rounded=0;entryX=0.477;entryY=-0.011;entryDx=0;entryDy=0;entryPerimeter=0;fontSize=16;exitX=1;exitY=0.5;exitDx=0;exitDy=0;" parent="WIyWlLk6GJQsqaUBKTNV-1" source="lluz-K4Evu7ccjWHsJJB-12" target="lluz-K4Evu7ccjWHsJJB-3" edge="1">
          <mxGeometry width="50" height="50" relative="1" as="geometry">
            <mxPoint x="670" y="280" as="sourcePoint" />
            <mxPoint x="480" y="160" as="targetPoint" />
            <Array as="points">
              <mxPoint x="730" y="310" />
              <mxPoint x="730" y="240" />
              <mxPoint x="500" y="240" />
              <mxPoint x="251" y="240" />
            </Array>
          </mxGeometry>
        </mxCell>
        <mxCell id="lluz-K4Evu7ccjWHsJJB-38" style="edgeStyle=orthogonalEdgeStyle;rounded=0;orthogonalLoop=1;jettySize=auto;html=1;entryX=0.5;entryY=0;entryDx=0;entryDy=0;fontSize=16;" parent="WIyWlLk6GJQsqaUBKTNV-1" source="lluz-K4Evu7ccjWHsJJB-4" target="lluz-K4Evu7ccjWHsJJB-10" edge="1">
          <mxGeometry relative="1" as="geometry" />
        </mxCell>
        <mxCell id="lluz-K4Evu7ccjWHsJJB-44" value="&lt;b&gt;&lt;font&gt;Движение вперед&lt;/font&gt;&lt;/b&gt;" style="swimlane;fontStyle=0;align=center;verticalAlign=top;childLayout=stackLayout;horizontal=1;startSize=26;horizontalStack=0;resizeParent=1;resizeLast=0;collapsible=1;marginBottom=0;rounded=0;shadow=0;strokeWidth=1;whiteSpace=wrap;html=1;fontSize=16;" parent="WIyWlLk6GJQsqaUBKTNV-1" vertex="1">
          <mxGeometry x="450" y="490" width="190" height="100" as="geometry">
            <mxRectangle x="90" y="450" width="160" height="26" as="alternateBounds" />
          </mxGeometry>
        </mxCell>
        <mxCell id="lluz-K4Evu7ccjWHsJJB-45" value="&amp;nbsp;Передвижение к заданной точке с использованием GPS, IMU, энкодеров" style="text;align=center;verticalAlign=middle;rounded=0;textDirection=ltr;horizontal=1;fontSize=16;html=1;whiteSpace=wrap;" parent="lluz-K4Evu7ccjWHsJJB-44" vertex="1">
          <mxGeometry y="26" width="190" height="74" as="geometry" />
        </mxCell>
        <mxCell id="lluz-K4Evu7ccjWHsJJB-46" value="&lt;b&gt;&lt;font&gt;Повороты&lt;/font&gt;&lt;/b&gt;" style="swimlane;fontStyle=0;align=center;verticalAlign=top;childLayout=stackLayout;horizontal=1;startSize=26;horizontalStack=0;resizeParent=1;resizeLast=0;collapsible=1;marginBottom=0;rounded=0;shadow=0;strokeWidth=1;whiteSpace=wrap;html=1;fontSize=16;" parent="WIyWlLk6GJQsqaUBKTNV-1" vertex="1">
          <mxGeometry x="660" y="490" width="190" height="100" as="geometry">
            <mxRectangle x="90" y="450" width="160" height="26" as="alternateBounds" />
          </mxGeometry>
        </mxCell>
        <mxCell id="lluz-K4Evu7ccjWHsJJB-47" value="Выравниваетсыя и поворачивается по данным IMU и энкодеров" style="text;align=center;verticalAlign=middle;rounded=0;textDirection=ltr;horizontal=1;fontSize=16;html=1;whiteSpace=wrap;" parent="lluz-K4Evu7ccjWHsJJB-46" vertex="1">
          <mxGeometry y="26" width="190" height="74" as="geometry" />
        </mxCell>
        <mxCell id="lluz-K4Evu7ccjWHsJJB-51" style="edgeStyle=orthogonalEdgeStyle;rounded=0;orthogonalLoop=1;jettySize=auto;html=1;fontSize=16;" parent="WIyWlLk6GJQsqaUBKTNV-1" source="lluz-K4Evu7ccjWHsJJB-45" target="lluz-K4Evu7ccjWHsJJB-47" edge="1">
          <mxGeometry relative="1" as="geometry" />
        </mxCell>
        <mxCell id="lluz-K4Evu7ccjWHsJJB-52" value="&lt;b&gt;&lt;font&gt;Отправка данных&lt;/font&gt;&lt;/b&gt;" style="swimlane;fontStyle=0;align=center;verticalAlign=top;childLayout=stackLayout;horizontal=1;startSize=26;horizontalStack=0;resizeParent=1;resizeLast=0;collapsible=1;marginBottom=0;rounded=0;shadow=0;strokeWidth=1;whiteSpace=wrap;html=1;fontSize=16;" parent="WIyWlLk6GJQsqaUBKTNV-1" vertex="1">
          <mxGeometry x="660" y="375" width="190" height="100" as="geometry">
            <mxRectangle x="90" y="450" width="160" height="26" as="alternateBounds" />
          </mxGeometry>
        </mxCell>
        <mxCell id="v1DWd8tfv562uI6PGH2X-3" style="edgeStyle=orthogonalEdgeStyle;rounded=0;orthogonalLoop=1;jettySize=auto;html=1;exitX=1;exitY=0.5;exitDx=0;exitDy=0;endArrow=none;startFill=0;" edge="1" parent="lluz-K4Evu7ccjWHsJJB-52" source="lluz-K4Evu7ccjWHsJJB-53">
          <mxGeometry relative="1" as="geometry">
            <mxPoint x="210" y="63" as="targetPoint" />
          </mxGeometry>
        </mxCell>
        <mxCell id="lluz-K4Evu7ccjWHsJJB-53" value="Отправляет полученные данные на сервер" style="text;align=center;verticalAlign=middle;rounded=0;textDirection=ltr;horizontal=1;fontSize=16;html=1;whiteSpace=wrap;" parent="lluz-K4Evu7ccjWHsJJB-52" vertex="1">
          <mxGeometry y="26" width="190" height="74" as="geometry" />
        </mxCell>
        <mxCell id="lluz-K4Evu7ccjWHsJJB-55" style="edgeStyle=orthogonalEdgeStyle;rounded=0;orthogonalLoop=1;jettySize=auto;html=1;entryX=0;entryY=0.5;entryDx=0;entryDy=0;fontSize=16;" parent="WIyWlLk6GJQsqaUBKTNV-1" source="lluz-K4Evu7ccjWHsJJB-8" target="lluz-K4Evu7ccjWHsJJB-53" edge="1">
          <mxGeometry relative="1" as="geometry" />
        </mxCell>
        <mxCell id="lluz-K4Evu7ccjWHsJJB-56" value="" style="endArrow=none;html=1;rounded=0;entryX=1;entryY=0.5;entryDx=0;entryDy=0;fontSize=16;" parent="WIyWlLk6GJQsqaUBKTNV-1" target="lluz-K4Evu7ccjWHsJJB-47" edge="1">
          <mxGeometry width="50" height="50" relative="1" as="geometry">
            <mxPoint x="730" y="240" as="sourcePoint" />
            <mxPoint x="739" y="450" as="targetPoint" />
            <Array as="points">
              <mxPoint x="870" y="240" />
              <mxPoint x="870" y="553" />
            </Array>
          </mxGeometry>
        </mxCell>
        <mxCell id="lluz-K4Evu7ccjWHsJJB-57" value="Непредвиденная ситуация" style="text;html=1;align=right;verticalAlign=middle;whiteSpace=wrap;rounded=0;fontSize=16;" parent="WIyWlLk6GJQsqaUBKTNV-1" vertex="1">
          <mxGeometry x="160" y="490" width="90" height="40" as="geometry" />
        </mxCell>
        <mxCell id="lluz-K4Evu7ccjWHsJJB-58" style="edgeStyle=orthogonalEdgeStyle;rounded=0;orthogonalLoop=1;jettySize=auto;html=1;entryX=0;entryY=0.5;entryDx=0;entryDy=0;" parent="WIyWlLk6GJQsqaUBKTNV-1" source="lluz-K4Evu7ccjWHsJJB-4" target="lluz-K4Evu7ccjWHsJJB-45" edge="1">
          <mxGeometry relative="1" as="geometry">
            <Array as="points">
              <mxPoint x="420" y="438" />
              <mxPoint x="420" y="553" />
            </Array>
          </mxGeometry>
        </mxCell>
      </root>
    </mxGraphModel>
  </diagram>
</mxfile>
